# xmcd CD database file
#
# Track frame offsets:
#	150
#	12622
#	32880
#	44410
#	62715
#	68105
#	72307
#	77242
#	89817
#	104620
#	114902
#	126987
#	136570
#
# Disc length: 2717 seconds
#
# Revision: 0
# Processed by: cddbd v1.4PL0 Copyright (c) Steve Scherf et al.
# Submitted via: CDex 1.51
#
DISCID=bd0a9b0d
DTITLE=Pascal Comelade - Zum-Zum-Ka
DYEAR=1900
DGENRE=New Age
TTITLE0=No-Nat
TTITLE1=Baile de Salón
TTITLE2=Cesc-Solo
TTITLE3=Peplum
TTITLE4=Maureen
TTITLE5=Peça Curta1
TTITLE6=Peça Curta2
TTITLE7=Egipci
TTITLE8=Gants i Banderes
TTITLE9=Game Boy
TTITLE10=No-Nat (2)
TTITLE11=Echo i Palmes
TTITLE12=Zumzum-ka
EXTD=
EXTT0=
EXTT1=
EXTT2=
EXTT3=
EXTT4=
EXTT5=
EXTT6=
EXTT7=
EXTT8=
EXTT9=
EXTT10=
EXTT11=
EXTT12=
PLAYORDER=
